<svg width="25" height="25" viewBox="0 0 25 25" fill="none" xmlns="http://www.w3.org/2000/svg">
<circle cx="12.5" cy="12.5" r="12.5" fill="#DF4B20"/>
<path fill-rule="evenodd" clip-rule="evenodd" d="M8.96449 8.96447C8.57396 9.35499 8.57396 9.98816 8.96449 10.3787L11.0858 12.5L8.96449 14.6213C8.57396 15.0118 8.57396 15.645 8.96449 16.0355C9.35501 16.4261 9.98818 16.4261 10.3787 16.0355L12.5 13.9142L14.6213 16.0355C15.0119 16.4261 15.645 16.4261 16.0356 16.0355C16.4261 15.645 16.4261 15.0118 16.0356 14.6213L13.9142 12.5L16.0356 10.3787C16.4261 9.98816 16.4261 9.35499 16.0356 8.96447C15.645 8.57394 15.0119 8.57394 14.6213 8.96447L12.5 11.0858L10.3787 8.96447C9.98818 8.57394 9.35501 8.57394 8.96449 8.96447Z" fill="white"/>
</svg>
